<?xml version="1.0" encoding="UTF-8"?>
<svg id="Layer_1" data-name="Layer 1" xmlns="http://www.w3.org/2000/svg" xmlns:xlink="http://www.w3.org/1999/xlink" viewBox="0 0 1528.74 443.12">
  <defs>
    <style>
      .cls-1, .cls-2, .cls-3, .cls-4, .cls-5, .cls-6, .cls-7, .cls-8 {
        fill: none;
      }

      .cls-2 {
        opacity: .3;
      }

      .cls-3 {
        clip-path: url(#clippath-3);
      }

      .cls-4 {
        clip-path: url(#clippath-2);
      }

      .cls-5 {
        clip-path: url(#clippath-1);
      }

      .cls-6, .cls-7 {
        stroke: #231f20;
        stroke-linecap: round;
        stroke-linejoin: round;
        stroke-width: 1.84px;
      }

      .cls-7 {
        stroke-dasharray: 0 0 11.01 11.01;
      }

      .cls-9 {
        fill: #4fb848;
        font-size: 30.08px;
      }

      .cls-9, .cls-10 {
        font-family: Lato-Black, Lato;
        font-weight: 800;
      }

      .cls-10 {
        fill: #0b9848;
        font-size: 30.08px;
      }

      .cls-11 {
        fill: url(#Degradado_sin_nombre_54);
      }

      .cls-12 {
        fill: url(#Degradado_sin_nombre_42);
      }

      .cls-13 {
        fill: url(#Degradado_sin_nombre_50);
      }

      .cls-14 {
        font-size: 8.52px;
      }

      .cls-14, .cls-15 {
        fill: #64bc46;
        font-family: Lato-Bold, Lato;
        font-weight: 700;
      }

      .cls-16 {
        fill: url(#Degradado_sin_nombre_7);
      }

      .cls-17 {
        fill: url(#Degradado_sin_nombre_50-2);
      }

      .cls-18 {
        fill: url(#Degradado_sin_nombre_42-3);
      }

      .cls-19 {
        fill: url(#Degradado_sin_nombre_42-2);
      }

      .cls-8 {
        clip-path: url(#clippath);
      }

      .cls-15 {
        font-size: 10.02px;
      }
    </style>
    <linearGradient id="Degradado_sin_nombre_7" data-name="Degradado sin nombre 7" x1="1271.41" y1="-798.05" x2="1499.16" y2="-798.05" gradientTransform="translate(225.16 1159.09) rotate(-12.97)" gradientUnits="userSpaceOnUse">
      <stop offset="0" stop-color="#2c6833"/>
      <stop offset="1" stop-color="#2c4f25"/>
    </linearGradient>
    <linearGradient id="Degradado_sin_nombre_50" data-name="Degradado sin nombre 50" x1="1271.41" y1="-848.29" x2="1504.86" y2="-848.29" gradientTransform="translate(225.16 1159.09) rotate(-12.97)" gradientUnits="userSpaceOnUse">
      <stop offset="0" stop-color="#64bc46"/>
      <stop offset="1" stop-color="#10b04b"/>
    </linearGradient>
    <linearGradient id="Degradado_sin_nombre_54" data-name="Degradado sin nombre 54" x1="1271.41" y1="-836.46" x2="1434.86" y2="-836.46" gradientTransform="translate(225.16 1159.09) rotate(-12.97)" gradientUnits="userSpaceOnUse">
      <stop offset="0" stop-color="#10753b"/>
      <stop offset="1" stop-color="#116a36"/>
    </linearGradient>
    <clipPath id="clippath">
      <path class="cls-1" d="m1508.94,27.94L1326.76,0s-4.24,1.39-12.71,9.56c-8.48,8.17-40.63,35.87-40.63,35.87l21.95-1.35,196.69-12.25,16.89-3.89Z"/>
    </clipPath>
    <linearGradient id="Degradado_sin_nombre_42" data-name="Degradado sin nombre 42" x1="1302.26" y1="-833.41" x2="1364.53" y2="-833.41" gradientTransform="translate(-54.16 779.62) rotate(4.27)" gradientUnits="userSpaceOnUse">
      <stop offset=".24" stop-color="#20b24b"/>
      <stop offset="1" stop-color="#214c24"/>
    </linearGradient>
    <clipPath id="clippath-1">
      <polygon class="cls-1" points="1273.41 45.43 1284.5 64.77 1438.79 35.24 1273.41 45.43"/>
    </clipPath>
    <linearGradient id="Degradado_sin_nombre_42-2" data-name="Degradado sin nombre 42" x1="1275.95" y1="-873.88" x2="1503.53" y2="-807.11" gradientTransform="translate(225.16 1159.09) rotate(-12.97)" xlink:href="#Degradado_sin_nombre_42"/>
    <linearGradient id="Degradado_sin_nombre_50-2" data-name="Degradado sin nombre 50" x1="1175.32" y1="-816.2" x2="1506.04" y2="-816.2" xlink:href="#Degradado_sin_nombre_50"/>
    <clipPath id="clippath-2">
      <path class="cls-1" d="m1251.15,65.26l-59.88,51.7.61,2.66,317.14-88.25s9.64-6.73-21.28-3.34c-30.91,3.39-236.59,37.24-236.59,37.24Z"/>
    </clipPath>
    <clipPath id="clippath-3">
      <path class="cls-1" d="m1251.15,65.26l-60.74,52.44,1.27,2.12,317.34-88.46s9.67-6.58-21.24-3.19c-30.91,3.39-236.63,37.09-236.63,37.09Z"/>
    </clipPath>
    <linearGradient id="Degradado_sin_nombre_42-3" data-name="Degradado sin nombre 42" x1="1173.66" y1="-815.56" x2="1525.63" y2="-815.56" gradientTransform="translate(225.16 1159.09) rotate(-12.97)" xlink:href="#Degradado_sin_nombre_42"/>
  </defs>
  <g class="cls-2">
    <g>
      <path class="cls-6" d="m2.07,442.2s-.35-1.94-.66-5.47"/>
      <path class="cls-7" d="m.92,425.74c-.19-43.65,18.44-162.3,218.49-210.65,247.4-59.79,466.43,50.56,684.98-54.32,166.4-79.86,186.83-157.49,347.3-121.78"/>
      <path class="cls-6" d="m1257.09,40.22c1.77.41,3.56.84,5.37,1.28"/>
    </g>
  </g>
  <g>
    <polygon class="cls-16" points="1284.01 91.46 1298.93 105.84 1504.19 32.71 1284.01 91.46"/>
    <path class="cls-13" d="m1508.94,27.94L1326.76,0s-4.24,1.39-12.71,9.56c-8.48,8.17-40.63,35.87-40.63,35.87l10.35,1.76,212.12-16.24,13.06-3.01Z"/>
    <polygon class="cls-11" points="1273.41 45.43 1284.5 64.77 1438.79 35.24 1273.41 45.43"/>
    <g class="cls-8">
      <ellipse class="cls-12" cx="1337.54" cy="47.73" rx="31.2" ry="15.84" transform="translate(45.91 398.43) rotate(-17.23)"/>
      <text class="cls-9" transform="translate(1323.35 53.7) rotate(11.06) scale(1.73 1)"><tspan x="0" y="0">$</tspan></text>
    </g>
    <g class="cls-5">
      <text class="cls-10" transform="translate(1325.69 55.05) rotate(.04) scale(1.73 1)"><tspan x="0" y="0">$</tspan></text>
    </g>
    <path class="cls-19" d="m1314.04,9.56c-8.48,8.17-40.63,35.87-40.63,35.87l1.93.33,8.74-.99,34.61-32.82s10.85,1.35,14.6-4.51l152.38,20.98,7.91,2.7,2.29-.18,13.06-3.01L1326.76,0s-4.24,1.39-12.71,9.56Z"/>
    <path class="cls-17" d="m1251.15,65.26l-59.88,51.7,1.51,1.79,316.24-87.39s9.67-6.58-21.24-3.19c-30.91,3.39-236.63,37.09-236.63,37.09Z"/>
    <g class="cls-4">
      <ellipse class="cls-12" cx="1337.54" cy="47.73" rx="31.2" ry="15.84" transform="translate(45.91 398.43) rotate(-17.23)"/>
      <text class="cls-9" transform="translate(1323.35 53.7) rotate(11.06) scale(1.73 1)"><tspan x="0" y="0">$</tspan></text>
    </g>
    <g class="cls-3">
      <path class="cls-18" d="m1528.74,21.37l-299.06,80.37c3.52-5.61-2.08-9.02-2.08-9.02l32.28-28.89h0c-5.58.91-8.73,1.43-8.73,1.43l-61.3,52.93,1.45,2.22,330.23-92.52,7.21-6.51Z"/>
    </g>
    <text class="cls-15" transform="translate(1216.6 105.56) rotate(-17.23) scale(1.84 1)"><tspan x="0" y="0">$</tspan></text>
    <text class="cls-14" transform="translate(1322.53 10.49) rotate(-17.23) scale(1.84 1)"><tspan x="0" y="0">$</tspan></text>
  </g>
</svg>