<?xml version="1.0" encoding="UTF-8"?>
<svg id="Layer_1" data-name="Layer 1" xmlns="http://www.w3.org/2000/svg" viewBox="0 0 48.2 48.2">
  <defs>
    <style>
      .cls-1 {
        fill: #346571;
      }

      .cls-2 {
        fill: #5db1cc;
      }

      .cls-3 {
        fill: #4fc9f5;
      }

      .cls-4 {
        fill: none;
        stroke: #fff;
        stroke-linecap: round;
        stroke-linejoin: round;
        stroke-width: 5px;
      }
    </style>
  </defs>
  <circle class="cls-3" cx="24.1" cy="24.1" r="20.15"/>
  <path class="cls-2" d="m24.1,48.2C10.81,48.2,0,37.39,0,24.1S10.81,0,24.1,0s24.1,10.81,24.1,24.1-10.81,24.1-24.1,24.1Zm0-44.25C12.99,3.95,3.95,12.99,3.95,24.1s9.04,20.15,20.15,20.15,20.15-9.04,20.15-20.15S35.21,3.95,24.1,3.95Z"/>
  <path class="cls-3" d="m1.47,24.1C1.47,11.06,11.89.4,24.84.01,24.6.01,24.35,0,24.11,0,10.82,0,.01,10.81.01,24.1s10.81,24.1,24.1,24.1c.25,0,.49,0,.73,0-12.95-.39-23.37-11.05-23.37-24.09h0Z"/>
  <path class="cls-1" d="m24.1,3.95c-.22,0-.43,0-.64,0,10.81.34,19.51,9.24,19.51,20.14s-8.69,19.8-19.51,20.14c.21,0,.43,0,.64,0,11.11,0,20.15-9.04,20.15-20.15S35.21,3.95,24.1,3.95Z"/>
  <polyline class="cls-4" points="13.86 21.85 20.68 33.68 33.71 15.23"/>
</svg>