<?xml version="1.0" encoding="UTF-8"?>
<svg id="Layer_1" data-name="Layer 1" xmlns="http://www.w3.org/2000/svg" viewBox="0 0 71.91 73.99">
  <defs>
    <style>
      .cls-1 {
        fill: #f8b518;
      }

      .cls-2 {
        fill: #fff1bc;
      }

      .cls-3 {
        fill: #fddd57;
      }

      .cls-4 {
        fill: #de9926;
      }
    </style>
  </defs>
  <circle class="cls-1" cx="35.54" cy="35.88" r="27.53" transform="translate(-6.54 63.8) rotate(-78.84)"/>
  <path class="cls-3" d="m35.53,68.8c-18.15,0-32.92-14.77-32.92-32.92S17.38,2.96,35.53,2.96s32.92,14.77,32.92,32.92-14.77,32.92-32.92,32.92Zm0-60.45c-15.18,0-27.53,12.35-27.53,27.53s12.35,27.53,27.53,27.53,27.53-12.35,27.53-27.53-12.35-27.53-27.53-27.53h0Z"/>
  <path class="cls-4" d="m44.33,47.9c-1.44,1.42-3.37,2.3-5.79,2.66v4.25h-3.9v-4.17c-1.71-.13-3.3-.46-4.76-.99-1.47-.54-2.75-1.26-3.84-2.18l1.68-3.59c2.22,1.73,4.61,2.69,7.19,2.87v-7.95c-1.71-.43-3.15-.91-4.32-1.43-1.17-.52-2.15-1.3-2.94-2.33-.79-1.03-1.19-2.38-1.19-4.03,0-1.38.34-2.63,1.03-3.77.69-1.13,1.65-2.08,2.89-2.83s2.66-1.23,4.26-1.43v-4.24h3.9v4.21c1.48.18,2.87.54,4.17,1.07,1.3.54,2.4,1.21,3.29,2.03l-1.68,3.59c-1.86-1.53-3.88-2.45-6.04-2.75v8.3c1.71.43,3.12.9,4.24,1.4,1.12.5,2.06,1.24,2.83,2.24.76.99,1.15,2.29,1.15,3.9,0,2.07-.72,3.81-2.16,5.22v-.05Zm-12.03-15.03c.61.55,1.48,1.01,2.6,1.4v-7.38c-1.1.23-1.96.68-2.58,1.34-.63.66-.94,1.49-.94,2.49,0,.89.31,1.61.92,2.16h0Zm8.41,12.39c.56-.62.84-1.43.84-2.43,0-.79-.28-1.43-.84-1.91s-1.38-.89-2.45-1.22v6.85c1.07-.23,1.89-.66,2.45-1.28h0Z"/>
  <path class="cls-2" d="m4.62,35.87C4.62,18.05,18.85,3.5,36.54,2.96c-.33-.01-.67-.02-1-.02C17.39,2.94,2.62,17.71,2.62,35.86s14.77,32.92,32.92,32.92c.34,0,.67,0,1-.02-17.69-.53-31.92-15.09-31.92-32.91v.02Z"/>
  <path class="cls-4" d="m35.53,8.35c-.29,0-.59,0-.88.02,14.77.47,26.65,12.63,26.65,27.51s-11.87,27.04-26.65,27.51c.29,0,.58.02.88.02,15.18,0,27.53-12.35,27.53-27.53s-12.35-27.53-27.53-27.53h0Z"/>
  <path class="cls-3" d="m31.57,31.99c.61.55,1.48,1.01,2.6,1.4v-7.38c-1.1.23-1.96.68-2.58,1.34-.63.66-.94,1.49-.94,2.49,0,.89.31,1.61.92,2.16h0Zm8.41,12.39c.56-.62.84-1.43.84-2.43,0-.79-.28-1.43-.84-1.91s-1.38-.89-2.45-1.22v6.85c1.07-.23,1.89-.66,2.45-1.28h0Zm3.61,2.64c-1.44,1.42-3.37,2.3-5.79,2.66v4.25h-3.9v-4.17c-1.71-.13-3.3-.46-4.76-.99-1.47-.54-2.75-1.26-3.84-2.18l1.68-3.59c2.22,1.73,4.61,2.69,7.19,2.87v-7.95c-1.71-.43-3.15-.91-4.32-1.43-1.17-.52-2.15-1.3-2.94-2.33-.79-1.03-1.19-2.38-1.19-4.03,0-1.38.34-2.63,1.03-3.77.69-1.13,1.65-2.08,2.89-2.83s2.66-1.23,4.26-1.43v-4.24h3.9v4.21c1.48.18,2.87.54,4.17,1.07,1.3.54,2.4,1.21,3.29,2.03l-1.68,3.59c-1.86-1.53-3.88-2.45-6.04-2.75v8.3c1.71.43,3.12.9,4.24,1.4,1.12.5,2.06,1.24,2.83,2.24.76.99,1.15,2.29,1.15,3.9,0,2.07-.72,3.81-2.16,5.22v-.05Z"/>
</svg>