<?xml version="1.0" encoding="UTF-8"?>
<svg id="Layer_1" data-name="Layer 1" xmlns="http://www.w3.org/2000/svg" viewBox="0 0 3000 556.83">
  <defs>
    <style>
      .cls-1 {
        fill: #0bbe5e;
      }

      .cls-1, .cls-2 {
        stroke-width: 0px;
      }

      .cls-2 {
        fill: #077d3e;
      }
    </style>
  </defs>
  <g id="SvgjsG1047">
    <path class="cls-2" d="m201.78,0l-76.3,171.33h685.32L201.78,0Zm-95.7,214.16L0,444.72l744.55-230.56H106.08Zm683.99,31.12L212.49,423.98v132.85L790.06,245.28Z"/>
  </g>
  <g id="SvgjsG1048">
    <path class="cls-1" d="m1220.79,404.61h193.19c4.72,27.65,7.08,51.25,7.08,70.81,0,10.11-.51,20.4-1.52,30.85-1.01,10.45-2.87,22.76-5.56,36.92h-424.82l-16.18-30.34,211.4-354.02h-172.96c-3.37-14.84-5.56-27.82-6.57-38.94s-1.52-21.75-1.52-31.86.51-20.4,1.52-30.85,3.2-22.76,6.57-36.92h411.68l10.11,32.37-212.41,352Zm261.98-32.37c0-33.04,7.08-60.35,21.24-81.93,14.16-21.58,32.37-38.77,54.62-51.59,22.25-12.81,46.87-21.75,73.84-26.8,26.97-5.06,53.27-7.59,78.9-7.59h61.7c-.67-12.14-4.05-22.25-10.11-30.34s-13.82-14.33-23.26-18.71-19.89-7.42-31.36-9.1-23.26-2.53-35.4-2.53c-16.18,0-35.07,1.85-56.64,5.56-21.58,3.71-43.83,9.61-66.76,17.7-6.07-11.46-11.3-21.91-15.68-31.36s-7.75-19.05-10.11-28.83c-2.36-9.78-4.05-19.89-5.06-30.34s-1.52-22.42-1.52-35.91c32.37-10.79,64.57-18.88,96.6-24.28s60.86-8.09,86.48-8.09c35.07,0,66.76,4.21,95.08,12.64s52.43,21.41,72.32,38.94c19.89,17.53,35.23,39.95,46.02,67.26s16.18,59.84,16.18,97.61v296.37c-25.62,7.42-56.64,14.83-93.06,22.25-36.41,7.42-74.85,11.13-115.31,11.13-35.07,0-67.26-3.2-96.6-9.61-29.33-6.41-54.45-16.69-75.36-30.85-20.9-14.16-37.26-32.87-49.06-56.14s-17.7-51.75-17.7-85.47h0Zm238.71,56.64c6.07,0,14.84-.68,26.3-2.02,11.46-1.35,19.89-2.7,25.29-4.04v-111.26h-57.65c-23.6,0-43.49,5.06-59.68,15.17-16.18,10.11-24.28,24.28-24.28,42.48,0,13.49,3.03,24.11,9.1,31.86s13.66,13.66,22.76,17.7,18.88,6.74,29.33,8.09c10.45,1.35,20.06,2.02,28.83,2.02Zm483.49-138.57c3.37.67,7.59,1.18,12.64,1.52s9.27.51,12.64.51c23.6,0,42.99-5.9,58.16-17.7,15.17-11.8,22.76-31.86,22.76-60.18,0-24.28-7.59-42.99-22.76-56.14-15.17-13.15-33.88-19.72-56.14-19.72h-11.63l-15.68,1.01v150.71ZM2038.07,22.27c31.02-4.72,62.88-8.26,95.59-10.62s64.23-3.54,94.57-3.54,61.36,2.87,91.03,8.6c29.67,5.73,56.3,16.18,79.91,31.36,23.6,15.17,42.65,36.08,57.15,62.71s21.75,61.2,21.75,103.68c0,38.44-6.57,70.8-19.72,97.1s-30.51,47.54-52.09,63.72-46.02,27.82-73.33,34.9-55.13,10.62-83.45,10.62c-11.46,0-21.24-.34-29.33-1.01s-13.15-1.35-15.17-2.02v124.41c-17.53,3.37-33.21,5.56-47.03,6.57s-26.13,1.52-36.92,1.52c-11.46,0-23.77-.51-36.92-1.52s-28.49-3.2-46.02-6.57V22.27h0Zm688.82,268.04c3.37.67,7.59,1.18,12.64,1.52,5.06.34,9.27.51,12.64.51,23.6,0,42.99-5.9,58.16-17.7,15.17-11.8,22.76-31.86,22.76-60.18,0-24.28-7.59-42.99-22.76-56.14-15.17-13.15-33.88-19.72-56.14-19.72h-11.63l-15.68,1.01v150.71Zm-166.9-268.04c31.02-4.72,62.88-8.26,95.59-10.62s64.23-3.54,94.57-3.54,61.36,2.87,91.03,8.6c29.67,5.73,56.3,16.18,79.91,31.36,23.6,15.17,42.65,36.08,57.15,62.71s21.75,61.2,21.75,103.68c0,38.44-6.57,70.8-19.72,97.1-13.15,26.3-30.51,47.54-52.09,63.72-21.58,16.18-46.02,27.82-73.33,34.9s-55.13,10.62-83.45,10.62c-11.46,0-21.24-.34-29.33-1.01s-13.15-1.35-15.17-2.02v124.41c-17.53,3.37-33.21,5.56-47.03,6.57s-26.13,1.52-36.92,1.52c-11.46,0-23.77-.51-36.92-1.52s-28.49-3.2-46.02-6.57V22.27h0Z"/>
  </g>
</svg>