<?xml version="1.0" encoding="UTF-8"?>
<svg id="Layer_1" data-name="Layer 1" xmlns="http://www.w3.org/2000/svg" viewBox="0 0 29.65 30.49">
  <path d="m20.78,6c1.49,0,2.94.59,4,1.66,1.07,1.06,1.65,2.49,1.65,3.99v8.84c0,3.12-2.53,5.65-5.65,5.65h-11.06c-3.12,0-5.65-2.53-5.65-5.65v-8.84c0-3.12,2.52-5.65,5.65-5.65h11.06Zm1.26,5.82c-.23-.01-.45.07-.62.22l-5.05,4.03c-.65.54-1.58.54-2.23,0l-5.03-4.03c-.35-.26-.83-.22-1.12.08-.3.3-.34.78-.08,1.12l.14.15,5.09,3.97c.63.49,1.38.76,2.18.76s1.57-.27,2.19-.76l5.05-4.04.08-.09c.27-.32.27-.79,0-1.12-.16-.17-.37-.27-.6-.29Z" style="fill: #0bbe5e; stroke-width: 0px;"/>
</svg>