<?xml version="1.0" encoding="UTF-8"?>
<svg id="Layer_1" data-name="Layer 1" xmlns="http://www.w3.org/2000/svg" viewBox="0 0 71.91 73.99">
  <defs>
    <style>
      .cls-1 {
        fill: #fff;
      }

      .cls-2 {
        fill: #d6cc87;
      }

      .cls-3 {
        fill: #1e7470;
      }
    </style>
  </defs>
  <g>
    <path class="cls-1" d="m56.59,41.37h-5.71v-18.87c0-8.24-6.7-14.94-14.94-14.94s-14.94,6.7-14.94,14.94v18.87h-5.71v-18.87C15.29,11.12,24.55,1.85,35.94,1.85s20.65,9.26,20.65,20.65v18.87h0Z"/>
    <rect class="cls-2" x="6.57" y="32.41" width="58.76" height="39.73" rx="2.21" ry="2.21"/>
  </g>
  <path class="cls-3" d="m40.81,46.29c0-2.68-2.17-4.86-4.86-4.86s-4.86,2.17-4.86,4.86c0,1.6.78,3.01,1.97,3.9l-1.55,10.98h8.87l-1.55-10.98c1.19-.88,1.97-2.3,1.97-3.9h.01Z"/>
</svg>