<?xml version="1.0" encoding="UTF-8"?>
<svg id="Layer_1" data-name="Layer 1" xmlns="http://www.w3.org/2000/svg" xmlns:xlink="http://www.w3.org/1999/xlink" viewBox="0 0 285.37 55.05">
  <defs>
    <style>
      .cls-1 {
        mask: url(#mask);
      }

      .cls-2 {
        fill: #18c258;
      }

      .cls-2, .cls-3 {
        stroke-width: 0px;
      }

      .cls-3 {
        fill: #fff;
      }
    </style>
    <mask id="mask" x="53.37" y="15.11" width="24.84" height="24.84" maskUnits="userSpaceOnUse">
      <g id="mask0_0_1" data-name="mask0 0 1">
        <path class="cls-3" d="m78.21,15.11h-24.84v24.84h24.84V15.11Z"/>
      </g>
    </mask>
  </defs>
  <rect class="cls-2" width="285.37" height="55.05" rx="6.81" ry="6.81"/>
  <g class="cls-1">
    <path class="cls-3" d="m53.42,39.95l1.75-6.38c-1.08-1.87-1.65-3.98-1.65-6.15.01-6.79,5.53-12.31,12.31-12.31,3.29,0,6.38,1.28,8.71,3.61,2.33,2.33,3.61,5.42,3.61,8.71-.01,6.79-5.53,12.31-12.31,12.31-2.06,0-4.09-.52-5.89-1.5l-6.53,1.71Zm6.83-3.94c1.73,1.03,3.39,1.65,5.58,1.65,5.64,0,10.22-4.59,10.24-10.23,0-5.65-4.57-10.24-10.24-10.24-5.64,0-10.22,4.59-10.24,10.23,0,2.3.67,4.03,1.81,5.83l-1.03,3.78,3.88-1.02Zm11.79-5.66c-.08-.13-.28-.2-.6-.36-.3-.15-1.82-.9-2.1-1s-.48-.15-.69.15c-.21.31-.8,1-.98,1.21s-.36.23-.66.08c-.31-.15-1.3-.48-2.47-1.53-.92-.82-1.54-1.82-1.72-2.13-.18-.31-.01-.47.13-.63.15-.14.31-.36.46-.54.16-.18.21-.31.31-.51.1-.2.06-.38-.02-.54-.08-.15-.7-1.67-.95-2.28-.25-.6-.51-.52-.69-.53h-.6c-.2-.01-.54.07-.82.37s-1.08,1.05-1.08,2.57,1.1,2.98,1.26,3.18,2.17,3.31,5.26,4.64c.73.32,1.3.51,1.75.65.73.23,1.4.2,1.93.12.6-.09,1.82-.74,2.08-1.46.26-.72.26-1.34.18-1.46Z"/>
  </g>
  <path class="cls-3" d="m92.89,21.51v3.67h4.31v1.67h-4.31v3.83h4.85v1.67h-6.9v-12.51h6.9v1.67h-4.85Zm12.37.77c.79,0,1.48.16,2.09.49.63.32,1.11.8,1.46,1.44.35.64.52,1.4.52,2.3v5.84h-2.03v-5.54c0-.89-.21-1.56-.66-2.03-.44-.48-1.04-.72-1.82-.72s-1.37.24-1.83.72c-.44.47-.66,1.14-.66,2.03v5.54h-2.04v-9.9h2.04v1.13c.34-.41.76-.72,1.28-.95.53-.23,1.08-.34,1.66-.34Zm10.52,8.23l2.8-8.07h2.18l-3.77,9.9h-2.45l-3.75-9.9h2.19l2.81,8.07Zm8.57-8.07v9.9h-2.04v-9.9h2.04Zm.83-2.66l-3.98,1.96v-1.51l3.98-2.19v1.74Zm1.18,7.57c0-.99.2-1.88.61-2.64.42-.77.99-1.36,1.7-1.78.72-.43,1.51-.65,2.37-.65.78,0,1.45.16,2.03.47.58.3,1.04.68,1.39,1.13v-1.44h2.07v9.9h-2.07v-1.47c-.35.47-.82.86-1.42,1.17-.6.31-1.28.47-2.04.47-.85,0-1.64-.22-2.34-.65-.71-.44-1.28-1.05-1.7-1.83-.4-.79-.61-1.68-.61-2.68Zm8.1.04c0-.68-.13-1.28-.43-1.78-.28-.5-.64-.89-1.1-1.15-.45-.26-.94-.4-1.47-.4s-1.02.13-1.47.4c-.46.25-.83.63-1.11,1.13-.28.49-.42,1.08-.42,1.76s.13,1.28.42,1.8.65.91,1.11,1.19c.47.26.96.4,1.47.4s1.02-.13,1.47-.4c.46-.26.82-.65,1.1-1.15.29-.52.43-1.11.43-1.8Zm13.52-7.53c1.33,0,2.49.26,3.48.77,1.01.5,1.79,1.23,2.33,2.19.55.95.82,2.06.82,3.33s-.27,2.37-.82,3.31c-.54.93-1.31,1.65-2.33,2.16-.99.49-2.16.74-3.48.74h-4.08v-12.49h4.08Zm0,10.82c1.46,0,2.58-.4,3.36-1.19.78-.79,1.17-1.91,1.17-3.34s-.39-2.58-1.17-3.4c-.78-.81-1.9-1.22-3.36-1.22h-2.03v9.15h2.03Zm9.71-9.55c-.37,0-.69-.13-.94-.38-.25-.25-.37-.56-.37-.93s.12-.68.37-.93c.26-.25.57-.38.94-.38s.66.13.91.38c.26.25.38.56.38.93s-.12.68-.38.93c-.25.25-.55.38-.91.38Zm1,1.31v9.9h-2.04v-9.9h2.04Zm7.7-.16c.78,0,1.47.16,2.08.49.63.32,1.11.8,1.46,1.44.35.64.52,1.4.52,2.3v5.84h-2.03v-5.54c0-.89-.21-1.56-.66-2.03-.44-.48-1.04-.72-1.81-.72s-1.38.24-1.84.72c-.44.47-.66,1.14-.66,2.03v5.54h-2.04v-9.9h2.04v1.13c.34-.41.76-.72,1.28-.95.53-.23,1.08-.34,1.67-.34Zm15.75,4.87c0,.37-.02.71-.08,1.01h-7.56c.06.79.35,1.43.88,1.91.53.48,1.18.72,1.94.72,1.1,0,1.88-.46,2.34-1.38h2.21c-.3.91-.84,1.66-1.64,2.25-.78.58-1.75.86-2.91.86-.94,0-1.8-.21-2.55-.63-.74-.43-1.34-1.03-1.76-1.8-.42-.78-.63-1.68-.63-2.7s.2-1.91.61-2.68c.43-.78,1-1.38,1.75-1.8.75-.42,1.62-.63,2.58-.63s1.76.2,2.49.61c.73.41,1.3.98,1.71,1.73.42.73.62,1.58.62,2.53Zm-2.15-.65c-.01-.75-.28-1.36-.81-1.82s-1.18-.68-1.95-.68c-.71,0-1.31.23-1.82.68-.49.44-.8,1.05-.9,1.82h5.48Zm6.21-2.62c.29-.5.7-.89,1.18-1.17.51-.29,1.1-.43,1.79-.43v2.12h-.53c-.8,0-1.42.2-1.83.61-.4.41-.61,1.11-.61,2.12v5.21h-2.06v-9.9h2.06v1.44Zm9.15,8.63c-.93,0-1.79-.21-2.54-.63-.75-.43-1.35-1.03-1.78-1.8-.44-.78-.65-1.68-.65-2.7s.22-1.9.66-2.68c.45-.78,1.06-1.38,1.82-1.8.76-.42,1.63-.63,2.57-.63s1.8.21,2.57.63c.76.42,1.37,1.02,1.81,1.8.45.78.66,1.67.66,2.68s-.22,1.9-.67,2.68c-.46.78-1.08,1.38-1.88,1.82-.78.42-1.64.63-2.58.63Zm0-1.78c.53,0,1.01-.13,1.47-.38.47-.25.84-.63,1.13-1.13.28-.5.43-1.11.43-1.83s-.13-1.32-.42-1.82c-.27-.5-.64-.88-1.09-1.13-.46-.25-.94-.38-1.47-.38s-1.02.13-1.48.38c-.44.25-.8.63-1.06,1.13-.26.49-.39,1.1-.39,1.82,0,1.07.27,1.89.81,2.48.55.58,1.24.86,2.07.86Zm21.81-10.88v12.49h-2.04v-5.46h-5.88v5.46h-2.06v-12.49h2.06v5.36h5.88v-5.36h2.04Zm7,12.66c-.93,0-1.79-.21-2.54-.63-.75-.43-1.35-1.03-1.78-1.8-.44-.78-.65-1.68-.65-2.7s.22-1.9.66-2.68c.45-.78,1.06-1.38,1.82-1.8.76-.42,1.63-.63,2.57-.63s1.8.21,2.57.63c.76.42,1.37,1.02,1.81,1.8.45.78.66,1.67.66,2.68s-.22,1.9-.67,2.68c-.46.78-1.08,1.38-1.88,1.82-.78.42-1.64.63-2.58.63Zm0-1.78c.53,0,1.02-.13,1.47-.38.47-.25.84-.63,1.13-1.13.28-.5.43-1.11.43-1.83s-.13-1.32-.42-1.82c-.27-.5-.64-.88-1.09-1.13-.46-.25-.94-.38-1.47-.38s-1.02.13-1.48.38c-.44.25-.79.63-1.06,1.13-.26.49-.39,1.1-.39,1.82,0,1.07.27,1.89.81,2.48.55.58,1.24.86,2.07.86Zm16.08-8.29l-6.07,14.56h-2.12l2.01-4.82-3.9-9.74h2.28l2.79,7.55,2.9-7.55h2.11Z"/>
</svg>