<?xml version="1.0" encoding="utf-8"?>
<!-- Generator: Adobe Illustrator 27.9.0, SVG Export Plug-In . SVG Version: 6.00 Build 0)  -->
<svg version="1.1" id="Layer_1" xmlns="http://www.w3.org/2000/svg" xmlns:xlink="http://www.w3.org/1999/xlink" x="0px" y="0px"
	 viewBox="0 0 1594.8 639.95" style="enable-background:new 0 0 1594.8 639.95;" xml:space="preserve">
<style type="text/css">
	.st0{opacity:0.05;}
	.st1{fill:#010101;}
	.st2{fill-rule:evenodd;clip-rule:evenodd;fill:#010101;}
	.st3{opacity:0.35;}
	.st4{opacity:0.29;}
</style>
<g class="st0">
	<g id="Layer_2_00000040570151729087723440000017840783730771154353_">
		<path class="st1" d="M441.23,476.71h-28.85V231.87l27.8-10.91l-0.24-50.1c-0.16-26.66,18.18-37.41,38.22-49.21
			c14.79-8.73,30.55-17.94,39.67-34.83c0.81-1.29,2.42-1.78,3.8-1.05c0.89,0.49,1.45,1.45,1.45,2.42l0,0V476.7L441.23,476.71
			L441.23,476.71z M440.27,250.78v20.04h25.53v-20.04H440.27z M440.27,414.97v20.04h25.53v-20.04H440.27z M440.27,382.16v20.04
			h25.53v-20.04H440.27z M440.27,349.36v19.96h25.53v-19.96H440.27z M440.27,316.47v20.04h25.53v-20.04H440.27z M440.27,283.66
			v20.04h25.53v-20.04H440.27z"/>
		<path class="st2" d="M983.11,279.3v228.84l-101.01-28.2V279.3l25.21-23.03l25.29-23.03l25.21,23.03L983.11,279.3z M917.34,292.63
			h30.55v20.04h-30.55V292.63z M917.34,444.14h30.55v20.04h-30.55V444.14z M917.34,406.25h30.55v20.04h-30.55V406.25z
			 M917.34,368.43h30.55v20.04h-30.55V368.43z M917.34,330.53h30.55v20.04h-30.55V330.53z"/>
		<polygon class="st2" points="1030.46,279.3 1030.46,508.14 983.11,508.14 983.11,279.3 932.61,233.24 979.96,233.24 
			1005.17,256.27 		"/>
		<polygon class="st2" points="983.11,279.3 932.61,233.24 979.96,233.24 1005.17,256.27 1030.46,279.3 		"/>
		<path class="st2" d="M1180.28,178.13v328.39H1061.9V232.76L1180.28,178.13L1180.28,178.13z M1088,280.59h73.86v20.04H1088V280.59z
			 M1088,444.87h73.86v20.04H1088V444.87z M1088,411.98h73.86v20.04H1088V411.98z M1088,379.17h73.86v20.04H1088V379.17z
			 M1088,346.28h73.86v20.04H1088V346.28z M1088,313.47h73.86v20.04H1088V313.47z"/>
		<path class="st2" d="M265.32,138.78V446h-26.1l-73.78,33.37h-26.18V205.61L265.32,138.78L265.32,138.78z M165.45,220.07h73.78
			v20.04h-73.78V220.07z M165.45,384.27h73.78v20.04h-73.78V384.27z M165.45,351.46h73.78v20.04h-73.78V351.46z M165.45,318.57
			h73.78v20.04h-73.78V318.57z M165.45,285.76h73.78v20.04h-73.78V285.76z M165.45,252.95h73.78v20.04h-73.78V252.95z"/>
		<g class="st3">
			<polygon class="st2" points="241.35,223.23 241.35,462.16 250.53,475.48 249.73,227.67 			"/>
			<polygon class="st2" points="241.61,222.6 241.61,461.52 250.79,474.85 249.99,227.05 			"/>
			<polygon class="st2" points="241.86,221.97 241.86,460.89 251.04,474.22 250.24,226.42 			"/>
			<polygon class="st2" points="242.12,221.34 242.12,460.26 251.3,473.59 250.5,225.79 			"/>
			<polygon class="st2" points="242.37,220.71 242.37,459.63 251.56,472.96 250.75,225.15 			"/>
			<polygon class="st2" points="242.63,220.08 242.63,459 251.81,472.33 251.01,224.52 			"/>
			<polygon class="st2" points="242.88,219.44 242.88,458.37 252.07,471.69 251.26,223.89 			"/>
			<polygon class="st2" points="243.14,218.81 243.14,457.74 252.32,471.07 251.52,223.26 			"/>
			<polygon class="st2" points="243.4,218.19 243.4,457.1 252.58,470.44 251.77,222.63 			"/>
			<polygon class="st2" points="243.65,217.56 243.65,456.47 252.83,469.81 252.03,222 			"/>
			<polygon class="st2" points="243.91,216.92 243.91,455.84 253.09,469.17 252.28,221.37 			"/>
			<polygon class="st2" points="244.16,216.29 244.16,455.21 253.34,468.54 252.54,220.74 			"/>
			<polygon class="st2" points="244.42,215.66 244.42,454.58 253.6,467.91 252.79,220.1 			"/>
			<polygon class="st2" points="244.67,215.03 244.67,453.95 253.85,467.28 253.05,219.47 			"/>
			<polygon class="st2" points="244.93,214.4 244.93,453.32 254.11,466.65 253.31,218.84 			"/>
			<polygon class="st2" points="245.18,213.77 245.18,452.69 254.36,466.02 253.56,218.21 			"/>
			<polygon class="st2" points="245.44,213.14 245.44,452.06 254.62,465.39 253.82,217.58 			"/>
			<polygon class="st2" points="245.69,212.5 245.69,451.43 254.87,464.76 254.07,216.95 			"/>
			<polygon class="st2" points="245.95,211.87 245.95,450.8 255.12,464.12 254.33,216.32 			"/>
			<polygon class="st2" points="246.2,211.24 246.2,450.17 255.38,463.49 254.58,215.68 			"/>
			<polygon class="st2" points="246.46,210.61 246.46,449.53 255.63,462.86 254.84,215.06 			"/>
			<polygon class="st2" points="246.71,209.98 246.71,448.9 255.89,462.23 255.09,214.43 			"/>
			<polygon class="st2" points="246.96,209.35 246.96,448.27 256.14,461.6 255.34,213.8 			"/>
			<polygon class="st2" points="247.22,208.72 247.22,447.64 256.4,460.97 255.6,213.16 			"/>
			<polygon class="st2" points="247.47,208.09 247.47,447.01 256.65,460.34 255.85,212.53 			"/>
			<polygon class="st2" points="247.73,207.45 247.73,446.38 256.91,459.7 256.11,211.9 			"/>
			<polygon class="st2" points="247.98,206.82 247.98,445.75 257.16,459.08 256.36,211.27 			"/>
			<polygon class="st2" points="248.24,206.2 248.24,445.12 257.42,458.45 256.62,210.64 			"/>
			<polygon class="st2" points="248.49,205.57 248.49,444.48 257.67,457.82 256.87,210.01 			"/>
			<polygon class="st2" points="248.75,204.93 248.75,443.85 257.93,457.18 257.13,209.38 			"/>
			<polygon class="st2" points="249,204.3 249,443.22 258.18,456.55 257.38,208.75 			"/>
			<polygon class="st2" points="249.26,203.67 249.26,442.59 258.44,455.92 257.64,208.11 			"/>
			<polygon class="st2" points="249.51,203.04 249.51,441.96 258.69,455.29 257.89,207.48 			"/>
			<polygon class="st2" points="249.77,202.41 249.77,441.33 258.95,454.66 258.15,206.85 			"/>
			<polygon class="st2" points="250.02,201.78 250.02,440.7 259.2,454.03 258.4,206.22 			"/>
			<polygon class="st2" points="250.28,201.15 250.28,440.07 259.46,453.4 258.66,205.59 			"/>
			<polygon class="st2" points="250.53,200.51 250.53,439.44 259.72,452.77 258.91,204.96 			"/>
		</g>
		<path class="st2" d="M1180.28,178.13v328.39h77.17V216.51L1180.28,178.13L1180.28,178.13z M1231.35,280.59h-32.64v20.04h32.64
			V280.59z M1231.35,444.87h-32.64v20.04h32.64V444.87z M1231.35,411.98h-32.64v20.04h32.64V411.98z M1231.35,379.17h-32.64v20.04
			h32.64V379.17z M1231.35,346.28h-32.64v20.04h32.64V346.28z M1231.35,313.47h-32.64v20.04h32.64V313.47z"/>
		<g class="st4">
			<rect x="495.02" y="183.83" class="st1" width="5.23" height="265.29"/>
			<rect x="495.21" y="183.58" class="st1" width="5.23" height="265.29"/>
			<rect x="495.41" y="183.34" class="st1" width="5.23" height="265.29"/>
			<rect x="495.61" y="183.1" class="st1" width="5.23" height="265.29"/>
			<rect x="495.81" y="182.86" class="st1" width="5.23" height="265.29"/>
			<rect x="496.01" y="182.62" class="st1" width="5.23" height="265.29"/>
			<rect x="496.2" y="182.38" class="st1" width="5.23" height="265.29"/>
			<rect x="496.4" y="182.14" class="st1" width="5.23" height="265.29"/>
			<rect x="496.6" y="181.89" class="st1" width="5.23" height="265.29"/>
			<rect x="496.8" y="181.65" class="st1" width="5.23" height="265.29"/>
			<rect x="497" y="181.41" class="st1" width="5.23" height="265.29"/>
			<rect x="497.2" y="181.17" class="st1" width="5.23" height="265.29"/>
			<rect x="497.4" y="180.93" class="st1" width="5.23" height="265.29"/>
			<rect x="497.6" y="180.69" class="st1" width="5.23" height="265.29"/>
			<rect x="497.79" y="180.45" class="st1" width="5.23" height="265.29"/>
			<rect x="497.99" y="180.21" class="st1" width="5.23" height="265.29"/>
			<rect x="498.19" y="179.97" class="st1" width="5.23" height="265.29"/>
			<rect x="498.39" y="179.72" class="st1" width="5.23" height="265.29"/>
			<rect x="498.59" y="179.48" class="st1" width="5.23" height="265.29"/>
			<rect x="498.79" y="179.24" class="st1" width="5.23" height="265.29"/>
			<rect x="498.99" y="179" class="st1" width="5.23" height="265.29"/>
			<rect x="499.18" y="178.76" class="st1" width="5.23" height="265.29"/>
			<rect x="499.38" y="178.52" class="st1" width="5.23" height="265.29"/>
			<rect x="499.58" y="178.28" class="st1" width="5.23" height="265.29"/>
			<rect x="499.78" y="178.04" class="st1" width="5.23" height="265.29"/>
			<rect x="499.98" y="177.79" class="st1" width="5.23" height="265.29"/>
			<rect x="500.17" y="177.55" class="st1" width="5.23" height="265.29"/>
			<rect x="500.38" y="177.31" class="st1" width="5.23" height="265.29"/>
			<rect x="500.57" y="177.07" class="st1" width="5.23" height="265.29"/>
			<rect x="500.77" y="176.83" class="st1" width="5.23" height="265.29"/>
			<rect x="500.97" y="176.59" class="st1" width="5.23" height="265.29"/>
			<rect x="501.17" y="176.35" class="st1" width="5.23" height="265.29"/>
			<rect x="501.37" y="176.1" class="st1" width="5.23" height="265.29"/>
			<rect x="501.57" y="175.87" class="st1" width="5.23" height="265.29"/>
			<rect x="501.76" y="175.62" class="st1" width="5.23" height="265.29"/>
			<rect x="501.96" y="175.38" class="st1" width="5.23" height="265.29"/>
			<rect x="502.16" y="175.14" class="st1" width="5.23" height="265.29"/>
		</g>
		<path class="st2" d="M250.53,200.51v260.68h140.92V275.26L250.53,200.51L250.53,200.51z M367.7,292.88h-12.44v123.39h12.44V292.88
			z M286.74,292.88h-12.44v123.39h12.44V292.88z M313.72,292.88h-12.44v123.39h12.44V292.88z M340.71,292.88h-12.44v123.39h12.44
			V292.88z"/>
		<path class="st2" d="M518.32,175.14h21.09v-57.45h26.43V72.11h19.96v-52.2c0-6.63,5.33-11.96,11.96-11.96
			c6.63,0,11.96,5.33,11.96,11.96v52.2h19.96v45.57h26.34v57.45h37.25v356.35h-191.1V175.14H518.32L518.32,175.14z M739.89,559.86
			h120.89V256.51l-131.07-72.08v375.42L739.89,559.86L739.89,559.86z M801.63,441.15h30.55v20.04h-30.55V441.15z M758.32,408.27
			h30.55v20.04h-30.55V408.27z M801.63,375.46h30.55v20.04h-30.55V375.46z M758.32,342.57h30.55v20.04h-30.55V342.57z M801.63,329.8
			v-20.04h30.55v20.04H801.63z M788.86,296.92h-30.55v-20.04h30.55V296.92z M561.72,228.07v-23.11H532.3v23.11L561.72,228.07
			L561.72,228.07z M663.13,228.07v-23.11h-29.41v23.11L663.13,228.07L663.13,228.07z M663.13,417.32v-23.11h-29.41v23.11H663.13z
			 M663.13,379.5v-23.11h-29.41v23.11H663.13z M663.13,341.61v-23.03h-29.41v23.03H663.13z M663.13,303.79v-23.11h-29.41v23.11
			H663.13z M663.13,265.89v-23.03h-29.41v23.03H663.13z M612.46,228.08v-23.11h-29.41v23.11H612.46z M612.46,417.32v-23.11h-29.41
			v23.11H612.46z M612.46,379.51V356.4h-29.41v23.11H612.46z M612.46,341.61v-23.03h-29.41v23.03H612.46z M612.46,303.79v-23.11
			h-29.41v23.11H612.46z M612.46,265.9v-23.03h-29.41v23.03H612.46z M561.72,417.33v-23.11H532.3v23.11H561.72z M561.72,379.51
			V356.4H532.3v23.11H561.72z M561.72,341.62v-23.03H532.3v23.03H561.72z M561.72,303.8v-23.11H532.3v23.11H561.72z M561.72,265.9
			v-23.03H532.3v23.03H561.72z"/>
		<path class="st2" d="M1284.84,505.31V237.36l63.03-25.53l63.03,25.53v267.95H1284.84L1284.84,505.31z M1310.94,285.28h73.78v19.96
			h-73.78V285.28z M1310.94,449.48h73.78v20.04h-73.78V449.48z M1310.94,416.59h73.78v20.04h-73.78V416.59z M1310.94,383.78h73.78
			v20.04h-73.78V383.78z M1310.94,350.89h73.78v20.04h-73.78V350.89z M1310.94,318.08h73.78v20.04h-73.78V318.08z"/>
		<path class="st2" d="M647.93,445.6c-199.91-21.09-367.34-17.86-502.2,9.7c-0.24-5.57-0.57-12.12-0.89-18.91
			c16.97-0.32,31.59-3.8,31.59-20.6c0-19.31-14.71-22.06-8.73-31.19c1.94-2.91,4.44-7.27,0.4-14.14
			c-3.31-5.82-11.15-9.05-7.92-15.43c1.13-2.18,2.18-3.96-0.32-9.94c-17.54-41.69-23.68-41.69-41.13,0
			c-2.51,5.98-1.45,7.76-0.32,9.94c3.15,6.38-4.69,9.61-8,15.43c-3.96,6.87-1.45,11.23,0.4,14.14c5.98,9.13-8.65,11.88-8.65,31.19
			c0,15.67,15.27,19.8,31.43,20.44c-0.4,8.08-0.73,15.67-1.05,21.82c-35.39,7.76-68.44,17.29-99.23,28.53l-2.31,56.43l1538.26,2.26
			l-2.26-55.87c-24.48,2.02-49.77,3.64-75.96,4.93c-0.4-8.16-0.89-18.26-1.37-29.01c21.82-0.4,40.65-4.85,40.65-26.5
			c0-24.89-18.91-28.45-11.15-40.24c2.42-3.8,5.66-9.37,0.49-18.26c-4.28-7.44-14.38-11.63-10.26-19.8
			c1.45-2.91,2.83-5.17-0.4-12.93c-22.54-53.73-30.55-53.73-53.01,0c-3.31,7.76-1.94,10.02-0.49,12.93
			c4.2,8.16-5.98,12.36-10.26,19.8c-5.09,8.89-1.94,14.46,0.57,18.26c7.68,11.8-11.23,15.35-11.23,40.24
			c0,20.28,19.71,25.45,40.57,26.43c-0.49,11.07-0.97,21.58-1.45,29.82c-114.98,4.69-245.97,2.34-393.12-7.19
			c-0.32-6.38-0.65-14.54-1.13-23.19c16.97-0.32,31.59-3.8,31.59-20.52c0-19.31-14.71-22.06-8.73-31.27
			c1.94-2.91,4.44-7.27,0.4-14.14c-3.31-5.74-11.15-8.97-7.92-15.35c1.13-2.26,2.18-3.96-0.32-10.02
			c-17.45-41.69-23.68-41.69-41.13,0c-2.51,6.06-1.45,7.76-0.32,10.02c3.23,6.38-4.61,9.61-7.92,15.35
			c-4.04,6.87-1.53,11.23,0.4,14.14c5.98,9.21-8.73,11.96-8.73,31.27c0,15.67,15.27,19.72,31.43,20.44
			c-0.4,8.32-0.73,16.16-1.05,22.39c-123.06-8.24-257.28-21.41-402.49-39.43c-0.49-8.16-0.97-18.83-1.53-30.22
			c20.93-0.4,38.95-4.69,38.95-25.37c0-23.84-18.1-27.23-10.67-38.55c2.34-3.64,5.42-8.97,0.49-17.54
			c-4.12-7.03-13.82-11.07-9.86-18.91c1.45-2.75,2.75-4.93-0.4-12.36c-21.58-51.47-29.17-51.47-50.75,0
			c-3.15,7.44-1.78,9.61-0.4,12.36c3.96,7.84-5.74,11.88-9.86,18.91c-4.93,8.57-1.86,13.9,0.57,17.54
			c7.35,11.31-10.75,14.71-10.75,38.55c0,19.39,18.83,24.41,38.87,25.29C648.75,427.83,648.35,437.77,647.93,445.6L647.93,445.6
			L647.93,445.6z"/>
		<path class="st2" d="M643.97,445.19c-198.22-20.6-364.27-17.29-498.24,10.1c-0.16-3.96-0.4-8.4-0.57-13.09
			c-1.53,0.08-3.07,0.08-4.61,0.16c0.32,6.79,0.65,13.33,0.97,18.91c134.78-27.55,302.21-30.79,502.12-9.7
			C643.73,449.56,643.81,447.46,643.97,445.19L643.97,445.19L643.97,445.19z M170.7,429.76c3.55-3.15,5.74-7.59,5.74-13.98
			c0-19.31-14.71-22.06-8.73-31.19c1.94-2.91,4.44-7.27,0.4-14.14c-3.31-5.82-11.15-9.05-7.92-15.43c1.13-2.18,2.18-3.96-0.32-9.94
			c-13.5-32.16-20.28-39.51-30.7-22.06c8.24-8.89,14.87,0.49,26.43,28.04c2.51,5.98,1.45,7.76,0.32,10.02
			c-3.23,6.3,4.61,9.61,7.92,15.35c4.04,6.87,1.53,11.23-0.4,14.14c-5.98,9.13,8.73,11.88,8.73,31.19
			C172.16,424.84,171.67,427.51,170.7,429.76L170.7,429.76L170.7,429.76z M114.7,365.28c-1.53,1.53-3.15,3.23-4.28,5.17
			c-0.32,0.57-0.65,1.21-0.89,1.78C111.79,369.89,114.06,367.79,114.7,365.28L114.7,365.28z M128.52,458.93
			c-33.86,7.59-65.61,16.81-95.19,27.64v4.44c29.57-10.59,61.17-19.56,94.95-26.99L128.52,458.93L128.52,458.93z M1523.86,456.02
			c4.04-3.96,6.46-9.46,6.46-17.21c0-24.89-18.91-28.45-11.15-40.24c2.42-3.8,5.66-9.37,0.49-18.26
			c-4.28-7.44-14.38-11.63-10.26-19.8c1.45-2.91,2.83-5.17-0.4-12.93c-17.13-40.8-25.86-50.67-38.87-29.49
			c10.83-12.52,19.39-0.73,34.59,35.47c3.23,7.76,1.86,10.02,0.4,12.93c-4.12,8.16,5.98,12.36,10.26,19.8
			c5.17,8.89,1.94,14.46-0.49,18.26c-7.76,11.8,11.15,15.35,11.15,40.24C1526.04,449.23,1525.23,452.95,1523.86,456.02
			L1523.86,456.02L1523.86,456.02z M1451.78,372.63c-2.26,2.34-4.85,4.77-6.55,7.68c-0.24,0.49-0.49,0.97-0.73,1.45
			C1447.41,378.61,1450.64,375.87,1451.78,372.63L1451.78,372.63L1451.78,372.63z M1469.72,495.22
			c-114.02,4.53-243.71,2.1-389.16-7.35c-0.24-4.93-0.49-10.91-0.81-17.37c-1.53,0.08-2.99,0.16-4.53,0.16
			c0.4,8.65,0.73,16.81,1.05,23.19c147.15,9.53,278.13,11.88,393.12,7.19C1469.56,499.18,1469.64,497.24,1469.72,495.22
			L1469.72,495.22L1469.72,495.22z M1105.37,458.04c3.55-3.07,5.66-7.51,5.66-13.9c0-19.31-14.71-22.06-8.73-31.27
			c1.94-2.91,4.44-7.27,0.4-14.14c-3.31-5.74-11.15-8.97-7.92-15.35c1.13-2.26,2.18-3.96-0.32-10.02
			c-13.5-32.16-20.28-39.51-30.62-21.98c8.16-8.89,14.79,0.4,26.34,27.96c2.51,6.06,1.45,7.76,0.32,10.02
			c-3.23,6.38,4.61,9.61,8,15.35c3.96,6.87,1.45,11.23-0.49,14.14c-5.98,9.21,8.73,11.96,8.73,31.27
			C1106.74,453.2,1106.26,455.79,1105.37,458.04L1105.37,458.04L1105.37,458.04z M1049.29,393.56c-1.53,1.62-3.15,3.23-4.2,5.17
			c-0.4,0.65-0.73,1.21-0.97,1.78C1046.38,398.17,1048.73,396.07,1049.29,393.56L1049.29,393.56z M1063.19,486.73
			c-122.02-8.24-254.86-21.33-398.53-39.19c-0.4-6.71-0.81-15.19-1.21-24.41c-1.53,0.08-3.07,0.16-4.61,0.16
			c0.57,11.39,1.05,22.06,1.53,30.22c145.21,18.02,279.42,31.19,402.49,39.43C1062.94,491.02,1063.1,488.92,1063.19,486.73
			L1063.19,486.73L1063.19,486.73z M695.77,408.59c3.96-3.8,6.3-9.13,6.3-16.65c0-23.84-18.1-27.23-10.67-38.55
			c2.34-3.64,5.42-8.97,0.49-17.54c-4.12-7.03-13.82-11.07-9.86-18.91c1.45-2.75,2.75-4.93-0.4-12.36
			c-16.4-39.19-24.73-48.56-37.25-28.12c10.34-11.88,18.5-0.49,32.97,34.1c3.15,7.44,1.86,9.61,0.49,12.36
			c-4.04,7.84,5.66,11.88,9.78,18.91c4.93,8.57,1.86,13.9-0.49,17.54c-7.44,11.31,10.75,14.71,10.75,38.55
			C697.87,402.13,697.06,405.61,695.77,408.59L695.77,408.59L695.77,408.59z M626.76,328.68c-2.1,2.18-4.53,4.53-6.14,7.19
			c-0.24,0.57-0.57,1.05-0.81,1.53C622.64,334.41,625.71,331.74,626.76,328.68L626.76,328.68L626.76,328.68z"/>
	</g>
</g>
</svg>
