<?xml version="1.0" encoding="UTF-8"?>
<svg id="Layer_1" data-name="Layer 1" xmlns="http://www.w3.org/2000/svg" viewBox="0 0 27.11 31.34">
  <path d="m14.15,5.34c-2.45,0-4.79.98-6.52,2.71-1.74,1.73-2.71,4.08-2.71,6.52,0,2,.65,3.94,1.86,5.54,0,0,.25.33.29.38l7.07,8.34,7.08-8.35s.29-.37.29-.37h0c1.21-1.59,1.85-3.54,1.85-5.54,0-2.45-.97-4.79-2.71-6.52-1.73-1.73-4.07-2.7-6.52-2.71Zm0,12.58c-.66,0-1.31-.2-1.86-.57-.55-.37-.98-.89-1.24-1.51-.25-.61-.32-1.29-.18-1.94.13-.65.44-1.25.91-1.72.47-.47,1.07-.79,1.72-.92.65-.13,1.33-.06,1.94.19.61.25,1.14.68,1.51,1.24.37.55.56,1.2.56,1.86,0,.89-.35,1.74-.98,2.37s-1.48.98-2.37.98Z" style="fill: #0bbe5e; stroke-width: 0px;"/>
</svg>